<mxfile host="app.diagrams.net" agent="Mozilla/5.0 (X11; Linux x86_64; rv:134.0) Gecko/20100101 Firefox/134.0" version="28.2.5">
  <diagram name="Página-1" id="Z8TmXBqX-inLabFCTmzv">
    <mxGraphModel dx="1426" dy="754" grid="1" gridSize="10" guides="1" tooltips="1" connect="1" arrows="1" fold="1" page="1" pageScale="1" pageWidth="827" pageHeight="1169" math="0" shadow="0">
      <root>
        <mxCell id="0" />
        <mxCell id="1" parent="0" />
        <mxCell id="cPFRrt61VCr7zgrgv72x-7" style="edgeStyle=orthogonalEdgeStyle;rounded=0;orthogonalLoop=1;jettySize=auto;html=1;" edge="1" parent="1" source="cPFRrt61VCr7zgrgv72x-1" target="cPFRrt61VCr7zgrgv72x-3">
          <mxGeometry relative="1" as="geometry" />
        </mxCell>
        <mxCell id="cPFRrt61VCr7zgrgv72x-1" value="ESPECIES" style="swimlane;childLayout=stackLayout;horizontal=1;startSize=50;horizontalStack=0;rounded=1;fontSize=14;fontStyle=0;strokeWidth=2;resizeParent=0;resizeLast=1;shadow=0;dashed=0;align=center;arcSize=4;whiteSpace=wrap;html=1;fillColor=#dae8fc;strokeColor=#6c8ebf;" vertex="1" parent="1">
          <mxGeometry x="130" y="90" width="160" height="120" as="geometry" />
        </mxCell>
        <mxCell id="cPFRrt61VCr7zgrgv72x-2" value="&lt;div&gt;DESCRIPCION&lt;/div&gt;&lt;div&gt;FOTOGRAFIA&lt;/div&gt;&lt;div&gt;NOMBRE CIENTIFICO&lt;br&gt;&lt;/div&gt;" style="align=left;strokeColor=none;fillColor=none;spacingLeft=4;spacingRight=4;fontSize=12;verticalAlign=top;resizable=0;rotatable=0;part=1;html=1;whiteSpace=wrap;" vertex="1" parent="cPFRrt61VCr7zgrgv72x-1">
          <mxGeometry y="50" width="160" height="70" as="geometry" />
        </mxCell>
        <mxCell id="cPFRrt61VCr7zgrgv72x-3" value="RIESGO EXTINCION" style="rhombus;whiteSpace=wrap;html=1;fillColor=#ffe6cc;strokeColor=#d79b00;" vertex="1" parent="1">
          <mxGeometry x="370" y="90" width="110" height="115" as="geometry" />
        </mxCell>
        <mxCell id="cPFRrt61VCr7zgrgv72x-4" value="HABITATS" style="swimlane;childLayout=stackLayout;horizontal=1;startSize=50;horizontalStack=0;rounded=1;fontSize=14;fontStyle=0;strokeWidth=2;resizeParent=0;resizeLast=1;shadow=0;dashed=0;align=center;arcSize=4;whiteSpace=wrap;html=1;fillColor=#dae8fc;strokeColor=#6c8ebf;" vertex="1" parent="1">
          <mxGeometry x="570" y="90" width="160" height="120" as="geometry" />
        </mxCell>
        <mxCell id="cPFRrt61VCr7zgrgv72x-5" value="&lt;div&gt;NOMBRE&lt;/div&gt;&lt;div&gt;CLIMA &lt;br&gt;&lt;/div&gt;&lt;div&gt;VEGETACION&lt;br&gt;&lt;/div&gt;" style="align=left;strokeColor=none;fillColor=none;spacingLeft=4;spacingRight=4;fontSize=12;verticalAlign=top;resizable=0;rotatable=0;part=1;html=1;whiteSpace=wrap;" vertex="1" parent="cPFRrt61VCr7zgrgv72x-4">
          <mxGeometry y="50" width="160" height="70" as="geometry" />
        </mxCell>
        <mxCell id="cPFRrt61VCr7zgrgv72x-6" value="&lt;font style=&quot;font-size: 10px;&quot;&gt;INDICE VULNERABILIDAD&lt;/font&gt;" style="ellipse;whiteSpace=wrap;html=1;align=center;" vertex="1" parent="1">
          <mxGeometry x="380" y="50" width="100" height="40" as="geometry" />
        </mxCell>
        <mxCell id="cPFRrt61VCr7zgrgv72x-8" style="edgeStyle=orthogonalEdgeStyle;rounded=0;orthogonalLoop=1;jettySize=auto;html=1;entryX=0;entryY=0.129;entryDx=0;entryDy=0;entryPerimeter=0;" edge="1" parent="1" source="cPFRrt61VCr7zgrgv72x-3" target="cPFRrt61VCr7zgrgv72x-5">
          <mxGeometry relative="1" as="geometry" />
        </mxCell>
        <mxCell id="cPFRrt61VCr7zgrgv72x-9" value="N" style="text;html=1;align=center;verticalAlign=middle;resizable=0;points=[];autosize=1;strokeColor=none;fillColor=none;fontStyle=1" vertex="1" parent="1">
          <mxGeometry x="290" y="120" width="30" height="30" as="geometry" />
        </mxCell>
        <mxCell id="cPFRrt61VCr7zgrgv72x-10" value="M" style="text;html=1;align=center;verticalAlign=middle;resizable=0;points=[];autosize=1;strokeColor=none;fillColor=none;fontStyle=1" vertex="1" parent="1">
          <mxGeometry x="530" y="120" width="30" height="30" as="geometry" />
        </mxCell>
        <mxCell id="cPFRrt61VCr7zgrgv72x-15" style="edgeStyle=orthogonalEdgeStyle;rounded=0;orthogonalLoop=1;jettySize=auto;html=1;" edge="1" parent="1" source="cPFRrt61VCr7zgrgv72x-11" target="cPFRrt61VCr7zgrgv72x-5">
          <mxGeometry relative="1" as="geometry" />
        </mxCell>
        <mxCell id="cPFRrt61VCr7zgrgv72x-11" value="RECORRIDOS" style="swimlane;childLayout=stackLayout;horizontal=1;startSize=50;horizontalStack=0;rounded=1;fontSize=14;fontStyle=0;strokeWidth=2;resizeParent=0;resizeLast=1;shadow=0;dashed=0;align=center;arcSize=4;whiteSpace=wrap;html=1;fillColor=#dae8fc;strokeColor=#6c8ebf;" vertex="1" parent="1">
          <mxGeometry x="580" y="380" width="160" height="120" as="geometry" />
        </mxCell>
        <mxCell id="cPFRrt61VCr7zgrgv72x-12" value="&lt;div&gt;DURACION&lt;/div&gt;&lt;div&gt;LONGITUD&lt;/div&gt;&lt;div&gt;Nº MAX. VISITANTES&lt;br&gt;&lt;/div&gt;" style="align=left;strokeColor=none;fillColor=none;spacingLeft=4;spacingRight=4;fontSize=12;verticalAlign=top;resizable=0;rotatable=0;part=1;html=1;whiteSpace=wrap;" vertex="1" parent="cPFRrt61VCr7zgrgv72x-11">
          <mxGeometry y="50" width="160" height="70" as="geometry" />
        </mxCell>
        <mxCell id="cPFRrt61VCr7zgrgv72x-16" value="N" style="text;html=1;align=center;verticalAlign=middle;resizable=0;points=[];autosize=1;strokeColor=none;fillColor=none;fontStyle=1" vertex="1" parent="1">
          <mxGeometry x="650" y="220" width="30" height="30" as="geometry" />
        </mxCell>
        <mxCell id="cPFRrt61VCr7zgrgv72x-17" value="1" style="text;html=1;align=center;verticalAlign=middle;resizable=0;points=[];autosize=1;strokeColor=none;fillColor=none;fontStyle=1" vertex="1" parent="1">
          <mxGeometry x="660" y="340" width="30" height="30" as="geometry" />
        </mxCell>
        <mxCell id="cPFRrt61VCr7zgrgv72x-18" value="TIENE" style="rhombus;whiteSpace=wrap;html=1;fillColor=#ffe6cc;strokeColor=#d79b00;" vertex="1" parent="1">
          <mxGeometry x="170" y="250" width="80" height="70" as="geometry" />
        </mxCell>
        <mxCell id="cPFRrt61VCr7zgrgv72x-19" style="edgeStyle=orthogonalEdgeStyle;rounded=0;orthogonalLoop=1;jettySize=auto;html=1;" edge="1" parent="1" source="cPFRrt61VCr7zgrgv72x-2" target="cPFRrt61VCr7zgrgv72x-18">
          <mxGeometry relative="1" as="geometry" />
        </mxCell>
        <mxCell id="cPFRrt61VCr7zgrgv72x-23" style="edgeStyle=orthogonalEdgeStyle;rounded=0;orthogonalLoop=1;jettySize=auto;html=1;entryX=0.125;entryY=0.6;entryDx=0;entryDy=0;entryPerimeter=0;" edge="1" parent="1" target="cPFRrt61VCr7zgrgv72x-18">
          <mxGeometry relative="1" as="geometry">
            <mxPoint x="110" y="360" as="sourcePoint" />
          </mxGeometry>
        </mxCell>
        <mxCell id="cPFRrt61VCr7zgrgv72x-24" value="N" style="text;html=1;align=center;verticalAlign=middle;resizable=0;points=[];autosize=1;strokeColor=none;fillColor=none;fontStyle=1" vertex="1" parent="1">
          <mxGeometry x="210" y="210" width="30" height="30" as="geometry" />
        </mxCell>
        <mxCell id="cPFRrt61VCr7zgrgv72x-26" value="1" style="text;html=1;align=center;verticalAlign=middle;resizable=0;points=[];autosize=1;strokeColor=none;fillColor=none;fontStyle=1" vertex="1" parent="1">
          <mxGeometry x="170" y="210" width="30" height="30" as="geometry" />
        </mxCell>
        <mxCell id="cPFRrt61VCr7zgrgv72x-27" value="N" style="text;html=1;align=center;verticalAlign=middle;resizable=0;points=[];autosize=1;strokeColor=none;fillColor=none;fontStyle=1" vertex="1" parent="1">
          <mxGeometry x="70" y="330" width="30" height="30" as="geometry" />
        </mxCell>
        <mxCell id="cPFRrt61VCr7zgrgv72x-30" value="TIENE" style="rhombus;whiteSpace=wrap;html=1;fillColor=#ffe6cc;strokeColor=#d79b00;" vertex="1" parent="1">
          <mxGeometry x="610" y="260" width="80" height="70" as="geometry" />
        </mxCell>
        <mxCell id="cPFRrt61VCr7zgrgv72x-31" value="NOMBRE COMUN" style="rounded=1;whiteSpace=wrap;html=1;fillColor=#dae8fc;strokeColor=#6c8ebf;" vertex="1" parent="1">
          <mxGeometry x="25" y="360" width="115" height="50" as="geometry" />
        </mxCell>
      </root>
    </mxGraphModel>
  </diagram>
</mxfile>
